HIERARCHY
ROOT Hips
{
	OFFSET -3.958830 18.904000 13.208200
	CHANNELS 6 Xposition Yposition Zposition Zrotation Yrotation Xrotation 
	JOINT LHipJoint
	{
		OFFSET 0.000000 0.000000 0.000000
		CHANNELS 3 Zrotation Yrotation Xrotation
		JOINT LeftUpLeg
		{
			OFFSET 1.800000 -1.400000 0.085000
			CHANNELS 3 Zrotation Yrotation Xrotation
			JOINT LeftLeg
			{
				OFFSET 2.215000 -6.000000 0.000000
				CHANNELS 3 Zrotation Yrotation Xrotation
				JOINT LeftFoot
				{
					OFFSET 2.500000 -6.900000 0.000000
					CHANNELS 3 Zrotation Yrotation Xrotation
					JOINT LeftToeBase
					{
						OFFSET 0.200000 -0.500000 1.950000
						CHANNELS 3 Zrotation Yrotation Xrotation
						End Site
						{
							OFFSET 0.000000 0.000000 0.000000
						}
					}
				}
			}
		}
	}
	JOINT RHipJoint
	{
		OFFSET 0.000000 0.000000 0.000000
		CHANNELS 3 Zrotation Yrotation Xrotation
		JOINT RightUpLeg
		{
			OFFSET -1.800000 -1.400000 0.085000
			CHANNELS 3 Zrotation Yrotation Xrotation
			JOINT RightLeg
			{
				OFFSET -2.215000 -6.000000 0.000000
				CHANNELS 3 Zrotation Yrotation Xrotation
				JOINT RightFoot
				{
					OFFSET -2.500000 -6.900000 0.000000
					CHANNELS 3 Zrotation Yrotation Xrotation
					JOINT RightToeBase
					{
						OFFSET -0.200000 -0.500000 1.950000
						CHANNELS 3 Zrotation Yrotation Xrotation
						End Site
						{
							OFFSET 0.000000 0.000000 0.000000
						}
					}
				}
			}
		}
	}
	JOINT LowerBack
	{
		OFFSET 0.000000 0.000000 0.000000
		CHANNELS 3 Zrotation Yrotation Xrotation
		JOINT Spine
		{
			OFFSET -0.087000 1.940000 -0.288900
			CHANNELS 3 Zrotation Yrotation Xrotation
			JOINT Spine1
			{
				OFFSET 0.000000 1.950000 0.060000
				CHANNELS 3 Zrotation Yrotation Xrotation
				JOINT Neck
				{
					OFFSET 0.000000 0.000000 0.000000
					CHANNELS 3 Zrotation Yrotation Xrotation
					JOINT Neck1
					{
						OFFSET 0.000000 1.600000 0.340000
						CHANNELS 3 Zrotation Yrotation Xrotation
						JOINT Head
						{
							OFFSET 0.000000 1.667000 -0.240000
							CHANNELS 3 Zrotation Yrotation Xrotation
							End Site
							{
								OFFSET 0.000000 0.000000 0.000000
							}
						}
					}
				}
				JOINT LeftShoulder
				{
					OFFSET 0.000000 0.000000 0.000000
					CHANNELS 3 Zrotation Yrotation Xrotation
					JOINT LeftArm
					{
						OFFSET 2.700000 1.550000 -0.730000
						CHANNELS 3 Zrotation Yrotation Xrotation
						JOINT LeftForeArm
						{
							OFFSET 5.450000 0.000000 0.000000
							CHANNELS 3 Zrotation Yrotation Xrotation
							JOINT LeftHand
							{
								OFFSET 3.450000 0.000000 0.000000
								CHANNELS 3 Zrotation Yrotation Xrotation
								JOINT LeftHandIndex1
								{
									OFFSET 0.750000 0.000000 0.000000
									CHANNELS 3 Zrotation Yrotation Xrotation
									End Site
									{
										OFFSET 0.000000 0.000000 0.000000
									}
								}
							}
						}
					}
				}
				JOINT RightShoulder
				{
					OFFSET 0.000000 0.000000 0.000000
					CHANNELS 3 Zrotation Yrotation Xrotation
					JOINT RightArm
					{
						OFFSET -2.700000 1.550000 -0.730000
						CHANNELS 3 Zrotation Yrotation Xrotation
						JOINT RightForeArm
						{
							OFFSET -5.450000 0.000000 0.000000
							CHANNELS 3 Zrotation Yrotation Xrotation
							JOINT RightHand
							{
								OFFSET -3.450000 0.000000 0.000000
								CHANNELS 3 Zrotation Yrotation Xrotation
								JOINT RightHandIndex1
								{
									OFFSET -0.750000 0.000000 0.000000
									CHANNELS 3 Zrotation Yrotation Xrotation
									End Site
									{
										OFFSET 0.000000 0.000000 0.000000
									}
								}
							}
						}
					}
				}
			}
		}
	}
}
MOTION
Frames: 4
Frame Time: 0.016667
-2.920180 16.312470 -3.577570 -9.527275 -17.192971 -7.515817 -16.175305 10.211397 6.260636 33.838881 2.645989 -31.121176 -61.079454 35.037141 29.137383 1.669293 13.787863 0.252087 -0.248760 -0.653370 -0.126530 18.048902 -6.163925 4.073397 -37.146743 8.784480 -28.876008 49.070974 -24.817897 31.226879 -1.898231 -10.130186 0.762978 -0.413470 0.862820 0.748360 -2.280191 -4.516266 -10.358152 14.616300 0.523115 51.401816 7.069407 4.646633 11.624545 2.302158 -1.356959 -11.746156 -3.326969 2.814278 39.621481 -15.374120 5.827400 -15.406180 -2.308365 -5.706393 7.068314 -7.731616 26.847402 -5.654591 -25.719160 -74.126812 14.709938 -3.874404 3.418959 0.942670 0.376780 0.209360 0.215320 -2.523446 12.535388 4.946882 28.313586 10.936352 -18.793046 -43.637254 71.876957 -29.905060 1.271038 -0.233023 -0.427790 0.495000 0.513270 -0.010830 
-2.940940 16.245560 -3.598340 -8.882105 -18.294452 -8.713618 -16.169423 10.358022 6.143757 32.896272 2.592425 -31.011866 -58.427026 36.529075 32.259510 1.779019 13.917632 0.221331 -0.178790 -0.549890 -0.121760 18.043160 -6.101414 4.149903 -37.873191 9.374152 -29.441174 49.021444 -25.418314 32.702431 -2.010107 -10.243887 0.747464 -0.406110 0.791170 0.723660 -2.283358 -4.757903 -10.345513 14.949369 0.128180 53.820522 5.756959 4.483791 12.186266 2.866869 -3.824433 -12.207503 -8.978950 3.343031 41.517535 -13.654560 2.925380 -18.653640 -4.886006 -7.327499 7.560192 -7.235687 28.130481 -6.269168 -19.730690 -70.344227 9.409880 -3.741401 3.321895 0.991250 0.257830 0.299970 0.261460 -1.040509 15.803434 5.458016 23.252384 6.997255 -20.558478 -43.786031 74.313012 -31.007087 1.287464 -0.145432 -0.368400 0.523850 0.451260 0.042000 
-2.946330 16.231310 -3.581800 -8.237332 -19.075243 -8.345292 -16.176732 10.486356 6.036982 31.181435 2.212309 -31.702463 -55.351336 36.724350 34.368754 1.838607 13.948025 0.218445 -0.135290 -0.473300 -0.163000 18.024833 -6.014453 4.271585 -38.380441 9.513666 -31.048054 48.511647 -25.599602 33.587511 -2.050423 -10.258672 0.784481 -0.395200 0.764850 0.669820 -2.240905 -5.016779 -10.361180 14.151091 0.143132 53.298480 6.056545 3.909662 12.253075 3.009413 -5.666313 -13.246496 -13.921173 5.397261 45.550305 -10.476520 1.302120 -18.596370 -6.207615 -8.535434 8.648909 -12.844335 28.934746 -8.651396 -13.854684 -67.971213 4.972730 -3.578592 3.230325 1.019830 0.176730 0.340440 0.321670 0.255099 18.313302 5.906464 19.561840 6.181692 -20.095257 -32.686584 74.532890 -23.564732 1.441619 -0.471047 -0.343150 0.556600 0.397690 0.093990 
-2.929710 16.266610 -3.552320 -7.608824 -18.444245 -7.819828 -16.070560 10.477008 5.965307 28.877387 0.956500 -32.844377 -52.040791 36.353361 36.752920 1.957712 13.938473 0.229718 -0.044840 -0.309250 -0.170270 18.088287 -6.181718 4.333813 -38.526558 9.083202 -31.850003 46.934587 -25.526440 34.394829 -2.071537 -10.217596 0.829385 -0.357170 0.701490 0.629380 -2.456395 -4.743702 -10.305667 14.810854 -1.081606 52.326803 4.718205 2.675824 11.711025 3.209489 -6.551881 -14.159833 -16.716492 7.236198 48.521223 -7.875650 0.740730 -18.469060 -7.317278 -9.658797 9.504108 -17.008937 29.659641 -10.682782 -12.980544 -68.324102 4.039436 -3.415057 3.227616 0.994690 0.102280 0.407290 0.400270 1.209411 19.574731 6.260425 18.966780 6.870596 -19.142571 -18.962409 75.087993 -14.960759 1.612937 -0.808674 -0.264170 0.540550 0.281830 0.163590 
